# AST/ASF file generated using VICON BodyLanguage
# -----------------------------------------------
:version 1.10
:name VICON
:units
  mass 1.0
  length 0.45
  angle deg
:documentation
   .ast/.asf automatically generated from VICON data using
   VICON BodyBuilder and BodyLanguage model FoxedUp or BRILLIANT.MOD
:root
   order TX TY TZ RX RY RZ
   axis XYZ
   position 0 0 0  
   orientation 0 0 0 
:bonedata
  begin
     id 1 
     name lhipjoint
     direction 0.690799 -0.707083 0.151096 
     length 2.54797 
     axis 0 0 0  XYZ
  end
  begin
     id 2 
     name lfemur
     direction 0.34202 -0.939693 0  
     length 7.21646  
     axis 0 0 20  XYZ
    dof rx ry rz
    limits (-160.0 20.0)
           (-70.0 70.0)
           (-60.0 70.0)
  end
  begin
     id 3 
     name ltibia
     direction 0.34202 -0.939693 0   
     length 8.16759   
     axis 0 0 20   XYZ
    dof rx
    limits (-10.0 170.0)
  end
  begin
     id 4 
     name lfoot
     direction 0.0487203 -0.133858 0.989802   
     length 1.93375   
     axis -90 7.62852e-016 20   XYZ
    dof rx rz
    limits (-45.0 90.0)
           (-70.0 20.0)
  end
  begin
     id 5 
     name ltoes
     direction 1.53453e-011 -4.21783e-011 1   
     length 0.979747   
     axis -90 7.62852e-016 20   XYZ
    dof rx
    limits (-90.0 20.0)
  end
  begin
     id 6 
     name rhipjoint
     direction -0.694693 -0.703425 0.150315   
     length 2.56122  
     axis 0 0 0  XYZ 
  end
  begin
     id 7 
     name rfemur
     direction -0.34202 -0.939693 0   
     length 7.36786   
     axis 0 0 -20   XYZ
    dof rx ry rz
    limits (-160.0 20.0)
           (-70.0 70.0)
           (-70.0 60.0)
  end
  begin
     id 8 
     name rtibia
     direction -0.34202 -0.939693 0   
     length 8.07288   
     axis 0 0 -20   XYZ
    dof rx
    limits (-10.0 170.0)
 end
 begin
     id 9 
     name rfoot
     direction -0.0428397 -0.117701 0.992125   
     length 1.88295  
     axis -90 -7.62852e-016 -20   XYZ
    dof rx rz
    limits (-45.0 90.0)
           (-20.0 70.0)
  end
  begin
     id 10 
     name rtoes
     direction -1.53456e-011 -4.2187e-011 1   
     length 0.955578   
     axis -90 -7.62852e-016 -20   XYZ
    dof rx
    limits (-90.0 20.0)
  end
  begin
     id 11 
     name lowerback
     direction 0.0288145 0.999398 -0.0193241   
     length 1.92149   
     axis 0 0 0   XYZ
    dof rx ry rz
    limits (-20.0 45.0)
           (-30.0 30.0)
           (-30.0 30.0)
  end
  begin
     id 12 
     name upperback
     direction 0.0233784 0.998099 0.0570278   
     length 1.90435   
     axis 0 0 0   XYZ
    dof rx ry rz
    limits (-20.0 45.0)
           (-30.0 30.0)
           (-30.0 30.0)
  end
  begin
     id 13 
     name thorax
     direction 0.0096694 0.997833 0.0650817   
     length 1.9111   
     axis 0 0 0   XYZ
    dof rx ry rz
    limits (-20.0 45.0)
           (-30.0 30.0)
           (-30.0 30.0)
  end
  begin
     id 14 
     name lowerneck
     direction 0.00516803 0.999916 0.0118722   
     length 1.74664   
     axis 0 0 0   XYZ
    dof rx ry rz
    limits (-20.0 45.0)
           (-30.0 30.0)
           (-30.0 30.0)
  end
  begin
     id 15 
     name upperneck
     direction -0.0510851 0.996117 -0.071696   
     length 1.68498   
     axis 0 0 0   XYZ
    dof rx ry rz
    limits (-20.0 45.0)
           (-30.0 30.0)
           (-30.0 30.0)
  end
  begin
     id 16
     name head
     direction -0.019188 0.999436 -0.0275702  
     length 1.83483  
     axis 0 0 0   XYZ
    dof rx ry rz
    limits (-20.0 45.0)
           (-30.0 30.0)
           (-30.0 30.0)
  end
  begin
     id 17 
     name lclavicle
     direction 0.967006 0.248456 -0.0562957  
     length 3.39395  
     axis 0 0 0   XYZ
    dof ry rz
    limits (-20.0 10.0)
           (0.0 20.0)
  end
  begin
     id 18 
     name lhumerus
     direction 1 -4.48962e-011 -5.62711e-019   
     length 5.24318   
     axis 180 -30 -90   XYZ
    dof rx ry rz
    limits (-60.0 90.0)
           (-90.0 90.0)
           (-90.0 90.0)
  end
  begin
     id 19
     name lradius
     direction 1 -4.48966e-011 7.90625e-027   
     length 2.98999   
     axis 180 -30 -90   XYZ
    dof rx
    limits (-10.0 170.0)
  end
  begin
     id 20
     name lwrist
     direction 1 -4.48959e-011 1.61068e-026   
     length 1.49499   
     axis -9.31229e-015 90 90   XYZ
    dof ry
    limits (-180.0 0.0)
 end
  begin
     id 21 
     name lhand
     direction 1 -4.49017e-011 3.22136e-026   
     length 0.726745   
     axis -2.0555e-014 90 90   XYZ
    dof rx rz
    limits (-90.0 90.0)
           (-45.0 45.0)
  end
  begin
     id 22 
     name lfingers
     direction 1 -4.4898e-011 6.44272e-026   
     length 0.58592   
     axis -4.11101e-014 90 90   XYZ
    dof rx
    limits (0.0 90.0)
  end
  begin
     id 23
     name lthumb
     direction 0.707107 -6.34922e-011 0.707107   
     length 0.841268   
     axis -90 45 2.85299e-015   XYZ
    dof rx rz
    limits (-45.0 45.0)
           (-45.0 45.0)
  end
  begin
     id 24 
     name rclavicle
     direction -0.972232 0.230238 0.0419005   
     length 3.40416  
     axis 0 0 0   XYZ 
    dof ry rz
    limits (-10.0 20.0)
           (-20.0 0.0)
  end
  begin
     id 25 
     name rhumerus
     direction -1 -4.48976e-011 2.48487e-027  
     length 5.37045   
     axis 180 30 90   XYZ
    dof rx ry rz
    limits (-90.0 60.0)
           (-90.0 90.0)
           (-90.0 90.0)
  end
  begin
     id 26 
     name rradius
     direction -1 -4.48942e-011 7.87951e-027   
     length 2.92792   
     axis 180 30 90   XYZ
    dof rx
    limits (-10.0 170.0)
  end
  begin
     id 27 
     name rwrist
     direction -1 -4.48969e-011 1.61068e-026   
     length 1.46396   
     axis -9.31229e-015 -90 -90   XYZ
    dof ry
    limits (-180.0 0.0)
  end
  begin
     id 28
     name rhand
     direction -1 -4.49043e-011 3.22136e-026   
     length 0.784497   
     axis -2.0555e-014 -90 -90   XYZ
    dof rx rz
    limits (-90.0 90.0)
           (-45.0 45.0)
  end
  begin
     id 29
     name rfingers
     direction -1 -4.48823e-011 6.44272e-026   
     length 0.632482   
     axis -4.11101e-014 -90 -90   XYZ
    dof rx
    limits (0.0 90.0)
  end
  begin
     id 30
     name rthumb
     direction -0.707107 -6.34923e-011 0.707107   
     length 0.908121   
     axis -90 -45 -2.85299e-015   XYZ
    dof rx rz
    limits (-45.0 45.0)
           (-45.0 45.0)
  end
:hierarchy
  begin
    root lhipjoint rhipjoint lowerback
    lhipjoint lfemur
    lfemur ltibia
    ltibia lfoot
    lfoot ltoes
    rhipjoint rfemur
    rfemur rtibia
    rtibia rfoot
    rfoot rtoes
    lowerback upperback
    upperback thorax
    thorax lowerneck lclavicle rclavicle
    lowerneck upperneck
    upperneck head
    lclavicle lhumerus
    lhumerus lradius
    lradius lwrist
    lwrist lhand lthumb
    lhand lfingers
    rclavicle rhumerus
    rhumerus rradius
    rradius rwrist
    rwrist rhand rthumb
    rhand rfingers
  end

#!OML:ASF E:\Style6\Style6.ASF
:FULLY-SPECIFIED
:DEGREES
1858
root 0.966746 17.8455 -1.02055 30.5743 40.3251 0.00901003
lowerback 23.06 0.341376 14.9131
upperback 1.30708 5.32807 7.08613
thorax -10.911 1.99261 -2.09768
lowerneck -9.59969 0.961638 2.81479
upperneck 10.0482 3.72768 -21.4655
head 5.1211 0.782776 -7.02979
rclavicle 8.90555e-014 -3.18055e-015
rhumerus -48.6115 -48.8741 -32.2474
rradius 102.691
rwrist 158.25
rhand -13.7902 1.84297
rfingers 7.12502
rthumb 12.3314 -27.7734
lclavicle 8.90555e-014 -3.18055e-015
lhumerus -56.3292 36.9085 46.9546
lradius 94.1905
lwrist 35.7658
lhand -30.897 38.9873
lfingers 7.12502
lthumb -4.18366 68.926
rfemur -41.8694 -8.59671 21.1827
rtibia 27.3928
rfoot -30.9412 -26.3077
rtoes 35.4677
lfemur -53.2609 -17.9368 -8.42007
ltibia 22.2421
lfoot 3.81437 -16.1226
ltoes 3.07064
1859
root 0.974897 17.833 -1.03133 30.9102 40.1723 0.00620445
lowerback 22.8107 0.340212 15.0194
upperback 1.2294 5.3091 7.06886
thorax -10.8557 1.97915 -2.15885
lowerneck -9.69491 0.959454 2.79332
upperneck 9.77957 3.6726 -21.4275
head 5.04893 0.766984 -7.0104
rclavicle -4.45278e-014 4.77083e-015
rhumerus -48.6376 -49.0179 -32.2956
rradius 102.856
rwrist 158.574
rhand -14.0106 2.11682
rfingers 7.12502
rthumb 12.1189 -27.5122
lclavicle -4.45278e-014 4.77083e-015
lhumerus -56.2715 36.8656 46.9709
lradius 94.2214
lwrist 35.7028
lhand -31.0511 39.1951
lfingers 7.12502
lthumb -4.33252 69.1308
rfemur -42.3603 -8.69437 21.2338
rtibia 27.4489
rfoot -30.471 -26.4349
rtoes 34.9373
lfemur -53.7159 -17.8636 -8.31785
ltibia 22.3507
lfoot 3.78905 -16.0378
ltoes 3.11844
1860
root 0.982658 17.8248 -1.03996 31.2301 39.9803 0.0464899
lowerback 22.6293 0.325271 15.0326
upperback 1.16295 5.25998 7.04553
thorax -10.8358 1.95402 -2.17072
lowerneck -9.80941 0.990419 2.82275
upperneck 9.49742 3.66333 -21.4576
head 4.98484 0.771812 -7.0198
rclavicle -1.04958e-013 -3.97569e-014
rhumerus -48.4859 -49.0922 -32.5231
rradius 102.957
rwrist 158.656
rhand -14.2516 2.2122
rfingers 7.12502
rthumb 11.8865 -27.4304
lclavicle -1.04958e-013 -3.97569e-014
lhumerus -56.3528 36.9128 46.8473
lradius 94.2354
lwrist 35.7474
lhand -31.0909 39.0367
lfingers 7.12502
lthumb -4.37092 68.9716
rfemur -42.8035 -8.84801 21.2661
rtibia 27.558
rfoot -29.7489 -26.6143
rtoes 33.7889
lfemur -54.0759 -17.772 -8.31196
ltibia 22.4487
lfoot 3.77033 -15.9224
ltoes 2.92105
1861
root 0.989911 17.823 -1.04651 31.4656 39.7817 0.0589597
lowerback 22.5035 0.308044 14.9934
upperback 1.11516 5.2054 7.03399
thorax -10.8312 1.92897 -2.14195
lowerneck -9.83289 1.05124 2.90853
upperneck 9.09563 3.66287 -21.5022
head 4.87051 0.794711 -7.03989
rclavicle 2.54444e-014 4.77083e-014
rhumerus -48.2203 -49.1064 -32.8358
rradius 102.945
rwrist 158.527
rhand -14.1601 2.23918
rfingers 7.12502
rthumb 11.9748 -27.3983
lclavicle 2.54444e-014 4.77083e-014
lhumerus -56.4765 36.9618 46.6478
lradius 94.2112
lwrist 35.7915
lhand -31.1526 38.9355
lfingers 7.12502
lthumb -4.43052 68.8692
rfemur -43.1792 -8.96929 21.2983
rtibia 27.709
rfoot -29.088 -26.7282
rtoes 32.717
lfemur -54.3289 -17.6602 -8.34062
ltibia 22.5209
lfoot 3.75611 -15.8033
ltoes 2.82361
1862
root 0.999173 17.8179 -1.05248 31.7036 39.5992 0.12461
lowerback 22.3767 0.285574 14.9732
upperback 1.0887 5.14624 7.02764
thorax -10.8005 1.90365 -2.11634
lowerneck -9.9245 1.10276 2.91576
upperneck 8.74878 3.66773 -21.4929
head 4.78371 0.813044 -7.02944
rclavicle -2.54444e-014 9.22361e-014
rhumerus -48.031 -49.097 -33.0428
rradius 102.968
rwrist 158.462
rhand -14.019 2.26795
rfingers 7.12502
rthumb 12.1108 -27.3615
lclavicle -2.54444e-014 9.22361e-014
lhumerus -56.5649 37.037 46.542
lradius 94.2448
lwrist 35.8796
lhand -31.1572 38.7814
lfingers 7.12502
lthumb -4.43493 68.715
rfemur -43.5466 -9.20525 21.3497
rtibia 27.863
rfoot -28.7267 -26.5978
rtoes 32.4336
lfemur -54.5558 -17.6358 -8.37007
ltibia 22.5782
lfoot 3.7073 -15.6948
ltoes 2.59052
1863
root 1.00853 17.8112 -1.05728 31.8738 39.4057 0.188121
lowerback 22.3612 0.275335 14.9948
upperback 1.05133 5.13611 7.00248
thorax -10.8324 1.89294 -2.15243
lowerneck -10.0604 1.0992 2.92756
upperneck 8.52529 3.61785 -21.4656
head 4.73415 0.795492 -7.02137
rclavicle -6.36111e-014 -4.92986e-014
rhumerus -48.0866 -49.0549 -33.0941
rradius 103.05
rwrist 158.305
rhand -13.82 2.11954
rfingers 7.12502
rthumb 12.3027 -27.4985
lclavicle -6.36111e-014 -4.92986e-014
lhumerus -56.5514 37.034 46.4997
lradius 94.2105
lwrist 35.9923
lhand -31.1913 38.5066
lfingers 7.12502
lthumb -4.4679 68.4394
rfemur -43.8482 -9.41471 21.3754
rtibia 28.0225
rfoot -28.4837 -26.3983
rtoes 32.4908
lfemur -54.709 -17.6267 -8.41631
ltibia 22.6196
lfoot 3.54553 -15.6146
ltoes 1.80077
1864
root 1.01855 17.807 -1.06196 32.0391 39.1519 0.299983
lowerback 22.4266 0.259513 14.9368
upperback 0.997274 5.11413 6.9494
thorax -10.9337 1.87406 -2.17662
lowerneck -10.1857 1.11274 2.97668
upperneck 8.33455 3.59049 -21.4312
head 4.69567 0.788604 -7.01676
rclavicle 8.5875e-014 3.02153e-014
rhumerus -48.0957 -49.0015 -33.221
rradius 103.097
rwrist 158.137
rhand -13.705 2.04737
rfingers 7.12502
rthumb 12.4135 -27.564
lclavicle 8.5875e-014 3.02153e-014
lhumerus -56.6195 36.9854 46.382
lradius 94.1644
lwrist 36.0378
lhand -31.2769 38.3392
lfingers 7.12502
lthumb -4.55048 68.2703
rfemur -44.1275 -9.5824 21.3045
rtibia 28.2132
rfoot -28.0668 -26.2975
rtoes 31.9518
lfemur -54.8028 -17.635 -8.52132
ltibia 22.6609
lfoot 3.46761 -15.4285
ltoes 1.1
